<svg xmlns="http://www.w3.org/2000/svg" width="1024" height="1024" viewBox="-41 26.420997619628906 1105.508056640625 971.9210815429688" class="colorable-icon reset-top-left-margin" data-export-recolorable-svg="true" overflow="visible" xmlns:xlink="http://www.w3.org/1999/xlink" fill="rgb(0, 0, 0)" stroke="none"><g fill="none" stroke="rgb(0, 0, 0)" stroke-width="45" stroke-linecap="round" stroke-linejoin="round"><path d="M 943.748,370.015 C 969.449,384.339 980.618,392.815 987.266,398.917 C 995.236,407.62 1001.962,416.591 1008.18,427.259 C 1012.753,437.385 1016.495,448.942 1018.768,459.754 C 1019.917,471.151 1019.849,480.389 1017.701,495.729 L 1007.667,535.631" data-line="nan" stroke-width="45.0" fill="none" stroke="rgb(0, 0, 0)"/><path d="M 844.479,375.948 C 828.032,388.933 821.415,395.108 813.479,404.135 C 807.317,413.039 800.295,427.397 787.787,468.44" data-line="nan" stroke-width="45.0" fill="none" stroke="rgb(0, 0, 0)"/><path d="M 758.243,571.789 Q 748.386,600.235 738.67,622.264" data-line="nan" stroke-width="45.0" fill="none" stroke="rgb(0, 0, 0)"/><path d="M 350.951,541.953 C 358.366,545.507 365.296,550.358 371.76,556.878 C 377.538,565.479 380.905,572.817 382.959,580.191 C 384.11,588.743 384.165,598.447 382.939,607.863 C 380.441,617.101 376.435,626.489 372.378,633.589 C 365.341,642.605 358.467,649.332 344.892,658.658 C 329.37,665.095 321.083,667.093 309.937,668.36 C 291.733,667.494 273.44,662.964 254.744,654.017 C 240.744,643.953 226.697,629.186 216.396,613.438 C 209.374,596.941 203.794,577.279 201.935,565.481 C 201.848,548.043 204.354,529.599 209.351,511.605 C 215.801,496.135 225.212,478.86 235.599,464.495 C 246.873,452.352 261.004,440.454 274.461,431.817 C 290.182,424.068 310.56,416.461 328.576,412.361 C 344.628,410.592 362.859,410.615 380.959,412.752 C 396.036,416.196 413.038,421.963 428.445,429.116 C 443.969,438.243 458.352,448.782 472.436,461.476 C 484.378,474.596 495.351,489.126 504.239,503.87 C 514.591,524.961 520.393,540.872 524.985,558.411 C 528.156,577.629 529.428,594.756 529.401,614.1 C 527.957,632.304 525.024,650.58 520.53,668.98 C 514.507,687.235 506.738,705.273 496.982,724.056 C 486.826,739.896 476.593,753.166 464.03,767.064 C 450.423,779.778 436.951,790.559 412.602,806.34 L 358.864,835.531" data-line="nan" stroke-width="45.0" fill="none" stroke="rgb(0, 0, 0)"/><path d="M 40.392,952.49 C 33.499,951.49 27.722,949.289 4.0,935.577" data-line="nan" stroke-width="45.0" fill="none" stroke="rgb(0, 0, 0)"/><path d="M 738.67,622.264 C 729.652,640.054 692.389,701.142 681.681,711.433 C 670.892,724.034 657.583,737.909 636.34,757.049 C 609.027,777.474 577.949,796.14 548.909,809.964 C 523.197,819.542 496.92,826.952 465.843,833.092 C 435.921,836.721 414.572,837.736 358.864,835.531 Q 284.382,837.687 239.655,836.017" data-line="nan" stroke-width="45.0" fill="none" stroke="rgb(0, 0, 0)"/><path d="M 700.224,549.516 C 698.114,527.806 694.506,504.096 690.016,482.278 C 683.274,456.94 674.668,432.153 667.229,413.953 C 658.154,395.153 648.06,377.531 637.841,361.349 C 623.735,342.386 609.829,326.076 594.532,310.284 C 581.297,298.066 569.956,288.836 544.43,270.674 C 527.134,259.826 504.405,247.98 486.571,239.986 C 463.531,231.791 440.983,225.427 417.87,220.431 C 395.271,217.024 372.493,215.04 349.719,214.519 C 331.274,215.447 308.778,218.091 286.101,222.375 C 263.822,228.194 241.168,235.773 223.07,243.09 C 200.11,254.241 182.316,264.217 164.437,276.096 C 146.071,290.048 127.977,305.899 115.353,318.532 C 99.47,336.59 85.683,354.433 70.448,377.308 C 60.455,395.207 49.402,417.99 42.216,435.982 C 33.582,463.105 28.27,485.547 24.48,508.182 C 21.928,535.174 21.582,553.273 23.041,575.759 C 26.088,598.273 30.902,621.105 37.398,643.682 C 43.892,661.655 51.575,679.702 60.874,697.763 C 74.855,720.721 88.159,738.767 99.956,752.213 C 116.783,768.574 134.659,783.217 152.827,795.798 C 170.921,806.289 189.223,815.376 239.655,836.017" data-line="nan" stroke-width="45.0" fill="none" stroke="rgb(0, 0, 0)"/><path d="M 943.5887578013692,370.4985194852226 A 136.06511254454443,136.06511254454443 0 0,0 844.489871090688,375.97179795074857" data-line="0.0" stroke-width="45.0" fill="none" stroke="rgb(0, 0, 0)"/><path d="M 239.655,836.017 L 4.0,935.577" data-line="2.0" stroke-width="45.0" fill="none" stroke="rgb(0, 0, 0)"/><path d="M 692.389,701.142 L 700.224,549.516" data-line="4.0" stroke-width="45.0" fill="none" stroke="rgb(0, 0, 0)"/><path d="M 796.181,71.421 L 844.479,375.948" data-line="6.0" stroke-width="45.0" fill="none" stroke="rgb(0, 0, 0)"/><path d="M 989.526,78.293 L 943.748,370.015" data-line="7.0" stroke-width="45.0" fill="none" stroke="rgb(0, 0, 0)"/><path d="M 1007.667,535.631 L 925.687,861.738" data-line="8.0" stroke-width="45.0" fill="none" stroke="rgb(0, 0, 0)"/><path d="M 925.6972620603,861.7404063493182 A 118.70085140610328,118.70085140610328 0 0,1 785.3772074115677,950.7323828132928" data-line="9.0" stroke-width="45.0" fill="none" stroke="rgb(0, 0, 0)"/><path d="M 787.787,468.44 L 758.243,571.789" data-line="9.0" stroke-width="45.0" fill="none" stroke="rgb(0, 0, 0)"/><path d="M 784.989,952.553 L 40.392,952.49" data-line="12.0" stroke-width="45.0" fill="none" stroke="rgb(0, 0, 0)"/></g></svg>