<svg xmlns="http://www.w3.org/2000/svg" width="1024" height="1024" viewBox="-30.3439998626709 -40.40897178649902 1084.4901733398438 1105.343017578125" class="colorable-icon reset-top-left-margin" data-export-recolorable-svg="true" overflow="visible" xmlns:xlink="http://www.w3.org/1999/xlink" fill="rgb(0, 0, 0)" stroke="none"><g fill="none" stroke="rgb(0, 0, 0)" stroke-width="45" stroke-linecap="round" stroke-linejoin="round"><path d="M 14.698,307.815 C 17.755,297.751 21.546,289.83 28.367,280.963 C 37.204,273.243 51.47,263.881 141.191,209.756" data-line="nan" stroke-width="45.0" fill="none" stroke="rgb(0, 0, 0)"/><path d="M 145.098,410.3 C 48.651,469.221 34.28,479.028 25.711,487.217 C 22.358,491.644 18.152,499.533 14.656,509.386" data-line="nan" stroke-width="45.0" fill="none" stroke="rgb(0, 0, 0)"/><path d="M 975.117,468.456 C 989.688,478.033 998.318,486.007 1001.952,490.621 C 1007.011,500.204 1008.949,509.712 1008.797,514.553 C 1006.214,524.602 1003.814,529.636 996.7,539.0 Q 987.229,546.968 963.219,562.641" data-line="nan" stroke-width="45.0" fill="none" stroke="rgb(0, 0, 0)"/><path d="M 567.22,801.589 C 551.933,809.576 539.037,813.865 520.629,817.047 C 506.222,816.898 490.156,814.169 476.664,809.742 Q 466.185,804.797 438.944,788.883" data-line="nan" stroke-width="45.0" fill="none" stroke="rgb(0, 0, 0)"/><path d="M 157.489,620.073 C 36.673,546.0 27.436,537.763 20.615,528.359 Q 17.251,520.248 14.656,509.386" data-line="nan" stroke-width="45.0" fill="none" stroke="rgb(0, 0, 0)"/><path d="M 568.921,1003.068 C 551.65,1012.37 534.223,1017.781 516.375,1019.934 C 501.602,1019.197 485.303,1015.718 474.141,1011.401 Q 459.793,1004.082 430.878,986.771" data-line="nan" stroke-width="45.0" fill="none" stroke="rgb(0, 0, 0)"/><path d="M 46.085,754.186 C 33.673,745.881 24.618,736.783 18.736,726.853 C 16.52,716.583 17.493,703.74 20.861,695.166 Q 30.012,683.941 41.775,674.941" data-line="nan" stroke-width="45.0" fill="none" stroke="rgb(0, 0, 0)"/><path d="M 568.922,597.343 C 553.986,605.232 536.372,611.34 519.956,614.109 C 505.618,614.029 490.74,611.53 474.27,606.182 Q 461.089,599.791 434.681,584.161" data-line="nan" stroke-width="45.0" fill="none" stroke="rgb(0, 0, 0)"/><path d="M 145.098,410.3 C 47.942,350.708 33.396,340.532 28.774,336.247 C 21.471,326.788 17.68,318.466 14.698,307.815" data-line="nan" stroke-width="45.0" fill="none" stroke="rgb(0, 0, 0)"/><path d="M 880.193,410.664 L 975.117,468.456" data-line="0.0" stroke-width="45.0" fill="none" stroke="rgb(0, 0, 0)"/><path d="M 881.856,612.828 L 979.898,672.863" data-line="1.0" stroke-width="45.0" fill="none" stroke="rgb(0, 0, 0)"/><path d="M 963.219,562.641 L 567.22,801.589" data-line="6.0" stroke-width="45.0" fill="none" stroke="rgb(0, 0, 0)"/><path d="M 979.898,672.863 C 1033.3592399108572,701.9456575618125 1005.4968555035044,746.445834935435 960.471,765.48" data-line="9.0" stroke-width="45.0" fill="none" stroke="rgb(0, 0, 0)"/><path d="M 960.471,765.48 L 568.921,1003.068" data-line="10.0" stroke-width="45.0" fill="none" stroke="rgb(0, 0, 0)"/><path d="M 141.191,209.756 L 453.532,22.093" data-line="11.0" stroke-width="45.0" fill="none" stroke="rgb(0, 0, 0)"/><path d="M 430.878,986.771 L 46.085,754.186" data-line="12.0" stroke-width="45.0" fill="none" stroke="rgb(0, 0, 0)"/><path d="M 453.31228734621027,21.74387583356051 A 111.63521337783833,111.63521337783833 0 0,1 588.5520197166527,34.25139642669747" data-line="14.0" stroke-width="45.0" fill="none" stroke="rgb(0, 0, 0)"/><path d="M 589.817,32.883 L 975.992,265.393" data-line="15.0" stroke-width="45.0" fill="none" stroke="rgb(0, 0, 0)"/><path d="M 438.944,788.883 L 157.489,620.073" data-line="15.0" stroke-width="45.0" fill="none" stroke="rgb(0, 0, 0)"/><path d="M 975.992,265.393 C 1036.3477156405093,295.9053973193605 1003.2602264292647,344.0835447755729 959.457,361.506" data-line="16.0" stroke-width="45.0" fill="none" stroke="rgb(0, 0, 0)"/><path d="M 959.457,361.506 L 568.922,597.343" data-line="17.0" stroke-width="45.0" fill="none" stroke="rgb(0, 0, 0)"/><path d="M 41.775,674.941 L 144.302,612.437" data-line="19.0" stroke-width="45.0" fill="none" stroke="rgb(0, 0, 0)"/><path d="M 434.681,584.161 L 145.098,410.3" data-line="21.0" stroke-width="45.0" fill="none" stroke="rgb(0, 0, 0)"/></g></svg>