<svg xmlns="http://www.w3.org/2000/svg" width="1024" height="1024" viewBox="-40.21727800369263 24.141998291015625 1105.21728515625 975.4498291015625" class="colorable-icon reset-top-left-margin" data-export-recolorable-svg="true" overflow="visible" xmlns:xlink="http://www.w3.org/1999/xlink" fill="rgb(0, 0, 0)" stroke="none"><g fill="none" stroke="url(&quot;#theme-accent-gradient-linear&quot;) rgb(156, 146, 131)" stroke-width="45" stroke-linecap="round" stroke-linejoin="round"><path d="M 719.719,763.828 C 701.241,758.995 690.093,757.693 678.989,757.638 C 660.253,760.214 641.633,766.922 632.446,771.985 C 623.941,777.92 610.613,789.996 598.346,806.012 C 590.178,822.589 586.819,833.374 585.146,841.74 C 584.279,859.648 586.654,878.314 590.422,890.865 C 593.734,898.574 603.051,913.957 609.553,921.781 C 617.377,929.439 625.812,936.136 634.176,941.534 C 649.944,948.902 659.369,951.837 669.692,953.961 C 684.783,954.858 700.353,953.288 720.428,947.379 C 737.783,937.968 752.627,925.694 764.516,911.744 C 773.646,895.684 780.175,877.509 782.572,862.899 C 782.472,845.946 778.46,827.715 772.588,812.975 C 763.678,798.399 754.613,787.625 737.107,769.803" data-line="nan" stroke-width="45.0" fill="none" stroke="url(&quot;#theme-accent-gradient-linear&quot;) rgb(156, 146, 131)"/><path d="M 21.496,203.089 C 14.687,209.735 9.395,217.621 5.377,228.157 C 4.0,239.045 5.134,248.18 7.564,256.802 L 24.157,301.377" data-line="nan" stroke-width="45.0" fill="none" stroke="url(&quot;#theme-accent-gradient-linear&quot;) rgb(156, 146, 131)"/><path d="M 763.249,759.781 C 770.661,755.0 777.48,749.236 786.144,738.373 C 789.512,732.194 793.155,722.868 795.075,714.474 C 795.867,705.569 795.403,697.195 793.641,688.558 C 791.737,682.611 787.943,674.861 779.553,662.943 L 762.652,646.118" data-line="nan" stroke-width="45.0" fill="none" stroke="url(&quot;#theme-accent-gradient-linear&quot;) rgb(156, 146, 131)"/><path d="M 21.496,203.089 L 24.392,201.029" data-line="2.0" stroke-width="45.0" fill="none" stroke="url(&quot;#theme-accent-gradient-linear&quot;) rgb(156, 146, 131)"/><path d="M 24.392,201.029 L 27.549,199.204" data-line="3.0" stroke-width="45.0" fill="none" stroke="url(&quot;#theme-accent-gradient-linear&quot;) rgb(156, 146, 131)"/><path d="M 27.549,199.204 L 31.557,197.405" data-line="4.0" stroke-width="45.0" fill="none" stroke="url(&quot;#theme-accent-gradient-linear&quot;) rgb(156, 146, 131)"/><path d="M 31.557,197.405 L 36.055,195.897" data-line="5.0" stroke-width="45.0" fill="none" stroke="url(&quot;#theme-accent-gradient-linear&quot;) rgb(156, 146, 131)"/><path d="M 36.055,195.897 L 41.219,194.73" data-line="6.0" stroke-width="45.0" fill="none" stroke="url(&quot;#theme-accent-gradient-linear&quot;) rgb(156, 146, 131)"/><path d="M 41.219,194.73 L 929.456,193.489" data-line="7.0" stroke-width="45.0" fill="none" stroke="url(&quot;#theme-accent-gradient-linear&quot;) rgb(156, 146, 131)"/><path d="M 802.872,620.354 L 765.286,644.795" data-line="8.0" stroke-width="45.0" fill="none" stroke="url(&quot;#theme-accent-gradient-linear&quot;) rgb(156, 146, 131)"/><path d="M 802.872,620.354 L 955.979,103.314" data-line="9.0" stroke-width="45.0" fill="none" stroke="url(&quot;#theme-accent-gradient-linear&quot;) rgb(156, 146, 131)"/><path d="M 955.979,103.314 L 959.132,97.759" data-line="10.0" stroke-width="45.0" fill="none" stroke="url(&quot;#theme-accent-gradient-linear&quot;) rgb(156, 146, 131)"/><path d="M 959.132,97.759 L 963.179,92.51" data-line="11.0" stroke-width="45.0" fill="none" stroke="url(&quot;#theme-accent-gradient-linear&quot;) rgb(156, 146, 131)"/><path d="M 963.179,92.51 L 968.098,87.685" data-line="12.0" stroke-width="45.0" fill="none" stroke="url(&quot;#theme-accent-gradient-linear&quot;) rgb(156, 146, 131)"/><path d="M 968.098,87.685 L 973.385,83.637" data-line="13.0" stroke-width="45.0" fill="none" stroke="url(&quot;#theme-accent-gradient-linear&quot;) rgb(156, 146, 131)"/><path d="M 973.385,83.637 L 978.882,80.316" data-line="14.0" stroke-width="45.0" fill="none" stroke="url(&quot;#theme-accent-gradient-linear&quot;) rgb(156, 146, 131)"/><path d="M 978.882,80.316 L 1020.0,69.142" data-line="15.0" stroke-width="45.0" fill="none" stroke="url(&quot;#theme-accent-gradient-linear&quot;) rgb(156, 146, 131)"/><path d="M 763.249,759.781 L 737.488,769.665" data-line="16.0" stroke-width="45.0" fill="none" stroke="url(&quot;#theme-accent-gradient-linear&quot;) rgb(156, 146, 131)"/><path d="M 719.719,763.828 L 736.725,769.414" data-line="18.0" stroke-width="45.0" fill="none" stroke="url(&quot;#theme-accent-gradient-linear&quot;) rgb(156, 146, 131)"/><path d="M 24.157,301.377 L 129.127,583.58" data-line="22.0" stroke-width="45.0" fill="none" stroke="url(&quot;#theme-accent-gradient-linear&quot;) rgb(156, 146, 131)"/><circle cx="265.5179144422701" cy="856.2635481318116" r="98.32815086533331" data-line="23.0" stroke-width="45.0" fill="none" stroke="url(&quot;#theme-accent-gradient-linear&quot;) rgb(156, 146, 131)"/><path d="M 325.588,933.727 L 333.0,928.28" data-line="24.0" stroke-width="45.0" fill="none" stroke="url(&quot;#theme-accent-gradient-linear&quot;) rgb(156, 146, 131)"/><path d="M 129.127,583.58 C 153.32274412369037,646.3858346531096 211.3083372395754,642.9350300218132 250.839,641.515" data-line="25.0" stroke-width="45.0" fill="none" stroke="url(&quot;#theme-accent-gradient-linear&quot;) rgb(156, 146, 131)"/><path d="M 250.839,641.515 L 760.769,644.262" data-line="26.0" stroke-width="45.0" fill="none" stroke="url(&quot;#theme-accent-gradient-linear&quot;) rgb(156, 146, 131)"/></g></svg>