<svg xmlns="http://www.w3.org/2000/svg" width="1024" height="1024" viewBox="-41.10606575012207 -40.90866756439209 1107.0169677734375 1105.4855346679688" class="colorable-icon reset-top-left-margin" data-export-recolorable-svg="true" overflow="visible" xmlns:xlink="http://www.w3.org/1999/xlink" fill="rgb(0, 0, 0)" stroke="none"><g fill="none" stroke="rgb(0, 0, 0)" stroke-width="45" stroke-linecap="round" stroke-linejoin="round"><path d="M 371.941,463.696 C 362.563,470.624 350.17,476.23 342.148,478.265 C 334.229,479.257 322.416,478.748 310.497,475.722 C 298.149,469.564 287.093,460.251 278.134,448.546 C 272.303,436.589 268.257,420.939 267.271,405.306 C 269.306,389.645 274.567,374.197 281.465,362.516 C 287.629,355.278 298.812,346.311 310.763,340.355 C 321.826,337.308 333.049,336.692 344.745,338.341 C 356.997,342.884 368.979,350.707 376.224,357.598 C 384.787,369.282 390.389,381.326 393.769,393.36 C 395.351,409.223 394.387,421.186 391.404,433.338 C 386.278,445.415 376.773,459.62 371.941,463.696" data-line="nan" stroke-width="45.0" fill="none" stroke="rgb(0, 0, 0)"/><path d="M 634.053,437.64 C 630.458,425.743 628.686,412.5 628.927,399.747 C 631.524,385.851 635.82,374.174 642.929,362.148 C 649.627,354.514 658.959,346.905 670.318,341.0 C 682.908,337.295 694.703,336.584 705.578,338.054 C 716.34,341.608 727.02,347.63 738.196,357.659 C 743.617,364.768 750.09,376.824 754.779,392.27 C 756.254,407.362 755.222,421.492 751.472,435.715 C 744.546,449.93 734.773,461.996 724.675,470.154 C 712.564,475.92 698.317,479.233 683.961,479.031 C 672.179,476.137 660.035,470.276 648.64,460.65 Q 639.453,448.765 634.053,437.64" data-line="nan" stroke-width="45.0" fill="none" stroke="rgb(0, 0, 0)"/><path d="M 668.076,625.216 C 671.571,612.951 675.046,605.244 680.724,596.715 C 688.978,587.818 698.782,580.399 707.189,575.911 C 718.796,571.637 730.572,569.412 742.063,568.828 C 754.029,569.863 765.913,572.779 778.345,578.142 C 790.274,586.089 797.51,592.825 803.915,600.579 C 808.894,608.679 813.696,620.696 816.248,636.998 C 815.103,653.111 811.59,665.249 807.869,673.459 C 802.962,681.674 793.357,693.772 781.425,705.075 C 761.123,721.185 751.243,732.527 746.591,740.805 C 742.5,752.493 740.608,764.214 740.227,773.376" data-line="nan" stroke-width="45.0" fill="none" stroke="rgb(0, 0, 0)"/><path d="M 167.236650083979,137.22825651823473 A 503.423505310102,503.423505310102 0 0,0 27.730289241365142,355.4469039489421" data-line="0.0" stroke-width="45.0" fill="none" stroke="rgb(0, 0, 0)"/><path d="M 328.84762559138596,729.9509157073809 A 177.45889804994513,177.45889804994513 0 0,1 582.1823105755886,733.8391714219324" data-line="7.0" stroke-width="45.0" fill="none" stroke="rgb(0, 0, 0)"/><path d="M 27.809,355.472 C -5.111126840607526,463.45551974836536 -4.269369871312468,572.2566421831808 31.731,680.094" data-line="8.0" stroke-width="45.0" fill="none" stroke="rgb(0, 0, 0)"/><path d="M 31.69021623970997,680.1084168968538 A 509.1658515046448,509.1658515046448 0 0,0 1017.4938078671919,451.52081468915316" data-line="9.0" stroke-width="45.0" fill="none" stroke="rgb(0, 0, 0)"/><path d="M 1016.788,451.603 C 1010.6324506551456,395.9905401720182 995.2153921718862,340.18244006642715 967.45,284.54" data-line="10.0" stroke-width="45.0" fill="none" stroke="rgb(0, 0, 0)"/><path d="M 968.259242920624,284.12910136233563 A 511.7070911928358,511.7070911928358 0 0,0 167.45514104999904,137.46821867088107" data-line="11.0" stroke-width="45.0" fill="none" stroke="rgb(0, 0, 0)"/></g></svg>