<svg xmlns="http://www.w3.org/2000/svg" width="1024" height="1024" viewBox="-40.97700023651123 -32.09700012207031 1105.9769897460938 1088.2610473632812" class="colorable-icon reset-top-left-margin" data-export-recolorable-svg="true" overflow="visible" xmlns:xlink="http://www.w3.org/1999/xlink" fill="rgb(0, 0, 0)" stroke="none"><g fill="none" stroke="rgb(0, 0, 0)" stroke-width="45" stroke-linecap="round" stroke-linejoin="round"><path d="M 685.451,503.461 C 702.711,579.985 706.937,614.717 707.962,644.067 C 707.714,668.732 706.581,690.394 703.316,717.507 C 696.645,748.558 690.292,771.077 680.895,797.204 C 670.933,819.935 661.786,837.956 650.836,856.818 Q 630.931,884.49 612.214,906.958" data-line="nan" stroke-width="45.0" fill="none" stroke="rgb(0, 0, 0)"/><path d="M 535.179,987.806 L 513.304,1011.164" data-line="nan" stroke-width="45.0" fill="none" stroke="rgb(0, 0, 0)"/><path d="M 377.407,860.704 C 356.929,824.804 349.354,808.567 341.405,788.877 C 334.61,768.996 328.0,745.963 322.126,719.588 L 320.265,706.451" data-line="nan" stroke-width="45.0" fill="none" stroke="rgb(0, 0, 0)"/><path d="M 320.265,706.451 C 317.634,683.643 316.492,659.413 316.909,632.653 C 318.741,605.618 321.995,577.934 339.057,503.833" data-line="nan" stroke-width="45.0" fill="none" stroke="rgb(0, 0, 0)"/><path d="M 596.915,395.666 C 621.934,416.142 639.33,433.163 647.867,442.689 C 655.283,452.335 662.952,464.178 678.345,493.33" data-line="nan" stroke-width="45.0" fill="none" stroke="rgb(0, 0, 0)"/><path d="M 685.451,503.461 C 738.833,527.959 758.361,535.119 783.093,542.371 C 804.615,546.657 824.741,548.687 844.448,548.624 C 861.365,546.838 885.913,540.834 904.604,534.431 C 922.804,525.677 940.493,514.649 957.617,501.569 C 975.454,484.665 989.23,468.139 1002.13,448.431 C 1011.513,427.943 1018.187,404.992 1020.0,385.481 C 1018.424,367.682 1012.434,346.516 1005.017,331.265 C 991.313,314.462 977.31,302.334 958.948,291.139 C 939.741,283.101 917.018,277.157 893.395,274.758 C 873.186,275.706 849.592,279.811 823.931,287.129 L 799.442,296.503" data-line="nan" stroke-width="45.0" fill="none" stroke="rgb(0, 0, 0)"/><path d="M 632.787,374.321 C 646.149,334.504 651.283,309.881 652.442,295.165 C 652.314,285.321 651.082,273.044 648.25,258.91 C 644.484,246.218 638.747,232.394 633.097,221.611 C 626.377,211.835 616.617,199.683 609.602,192.338 L 583.03,170.545" data-line="nan" stroke-width="45.0" fill="none" stroke="rgb(0, 0, 0)"/><path d="M 440.239,172.097 C 413.827,195.63 404.617,205.616 396.948,215.419 C 390.931,224.961 383.896,239.214 380.211,248.807 C 375.979,263.478 372.288,286.778 372.004,297.636 C 372.847,306.588 379.12,337.553 390.259,373.875" data-line="nan" stroke-width="45.0" fill="none" stroke="rgb(0, 0, 0)"/><path d="M 583.03,170.545 C 591.1,153.675 600.118,131.77 610.151,112.485 C 622.985,92.534 638.89,73.34 660.226,53.275 C 682.063,37.301 708.297,22.527 730.925,12.903" data-line="nan" stroke-width="45.0" fill="none" stroke="rgb(0, 0, 0)"/><path d="M 186.21,283.549 C 162.775,277.757 139.368,274.873 116.887,275.382 C 98.375,278.526 78.359,284.697 57.227,294.949 C 40.237,307.029 27.871,319.479 16.41,335.714 C 10.127,349.86 5.142,369.325 4.023,388.742 C 5.638,406.85 10.314,425.131 19.885,446.514 C 30.903,464.259 44.716,481.384 59.377,496.024 C 74.171,508.326 91.334,520.003 108.932,529.576 C 127.648,537.441 146.8,543.248 169.238,547.677 C 186.259,548.879 203.517,548.41 220.946,546.314 C 240.049,542.406 263.403,535.241 287.555,526.572 Q 316.406,513.021 339.057,503.833" data-line="nan" stroke-width="45.0" fill="none" stroke="rgb(0, 0, 0)"/><path d="M 409.184,856.515 L 650.836,856.818" data-line="0.0" stroke-width="45.0" fill="none" stroke="rgb(0, 0, 0)"/><path d="M 513.304,1011.164 L 377.407,860.704" data-line="2.0" stroke-width="45.0" fill="none" stroke="rgb(0, 0, 0)"/><path d="M 703.316,717.507 L 322.126,719.588" data-line="3.0" stroke-width="45.0" fill="none" stroke="rgb(0, 0, 0)"/><path d="M 347.395,566.346 L 702.405,568.008" data-line="5.0" stroke-width="45.0" fill="none" stroke="rgb(0, 0, 0)"/><path d="M 596.2706973651609,396.76535834249023 A 166.08547091666338,166.08547091666338 0 0,0 426.849333504377,397.6340229947553" data-line="7.0" stroke-width="45.0" fill="none" stroke="rgb(0, 0, 0)"/><path d="M 702.405,568.008 L 685.451,503.461" data-line="9.0" stroke-width="45.0" fill="none" stroke="rgb(0, 0, 0)"/><path d="M 339.057,503.833 L 321.96,568.629" data-line="10.0" stroke-width="45.0" fill="none" stroke="rgb(0, 0, 0)"/><path d="M 346.70295664390534,494.1595491947902 A 223.59588637485928,223.59588637485928 0 0,1 426.3334242095717,396.7346003706348" data-line="11.0" stroke-width="45.0" fill="none" stroke="rgb(0, 0, 0)"/><path d="M 632.787,374.321 L 596.915,395.666" data-line="13.0" stroke-width="45.0" fill="none" stroke="rgb(0, 0, 0)"/><path d="M 426.142,396.455 L 186.21,283.549" data-line="14.0" stroke-width="45.0" fill="none" stroke="rgb(0, 0, 0)"/><path d="M 582.4655561841398,171.52925379320823 A 139.75277574629027,139.75277574629027 0 0,0 440.8180071129662,173.0579752623567" data-line="15.0" stroke-width="45.0" fill="none" stroke="rgb(0, 0, 0)"/><path d="M 612.214,906.958 L 535.179,987.806" data-line="18.0" stroke-width="45.0" fill="none" stroke="rgb(0, 0, 0)"/><path d="M 293.38005888377376,13.14085015962408 A 224.308507457201,224.308507457201 0 0,1 440.02440255781653,172.14993543592948" data-line="18.0" stroke-width="45.0" fill="none" stroke="rgb(0, 0, 0)"/><path d="M 409.184,856.515 L 377.407,860.704" data-line="23.0" stroke-width="45.0" fill="none" stroke="rgb(0, 0, 0)"/><path d="M 346.529,494.086 L 321.96,568.629" data-line="28.0" stroke-width="45.0" fill="none" stroke="rgb(0, 0, 0)"/><path d="M 347.395,566.346 L 321.96,568.629" data-line="29.0" stroke-width="45.0" fill="none" stroke="rgb(0, 0, 0)"/><path d="M 678.345,493.33 L 702.405,568.008" data-line="30.0" stroke-width="45.0" fill="none" stroke="rgb(0, 0, 0)"/><path d="M 799.442,296.503 L 632.787,374.321" data-line="31.0" stroke-width="45.0" fill="none" stroke="rgb(0, 0, 0)"/></g></svg>